<?xml version="1.0" standalone="no"?>
<!DOCTYPE svg PUBLIC "-//W3C//DTD SVG 20010904//EN"
 "http://www.w3.org/TR/2001/REC-SVG-20010904/DTD/svg10.dtd">
<svg version="1.0" xmlns="http://www.w3.org/2000/svg"
 width="300.000000pt" height="300.000000pt" viewBox="0 0 300.000000 300.000000"
 preserveAspectRatio="xMidYMid meet">
<metadata>
Created by potrace 1.10, written by Peter Selinger 2001-2011
</metadata>
<g transform="translate(0.000000,300.000000) scale(0.100000,-0.100000)"
fill="#000000" stroke="none">
<path d="M1437 2226 c-37 -41 -67 -77 -67 -80 0 -3 27 -6 60 -6 50 0 60 -3 60
-17 0 -10 -7 -105 -16 -211 l-16 -192 24 -20 c28 -24 28 -24 57 0 l23 20 -16
183 c-9 100 -19 194 -22 209 -5 27 -5 27 60 30 l65 3 -67 77 c-37 42 -70 77
-73 77 -3 1 -36 -32 -72 -73z m117 -21 c10 -15 16 -28 14 -29 -24 -15 -67 -20
-90 -12 -35 13 -35 24 -3 59 30 31 50 26 79 -18z m-31 -377 c5 -81 -2 -113
-22 -92 -11 10 -2 174 9 174 4 0 10 -37 13 -82z"/>
<path d="M2264 2020 c-14 -14 -737 -403 -750 -403 -6 0 -183 90 -394 202 -210
111 -384 200 -386 198 -3 -2 60 -202 94 -300 l17 -49 257 -130 258 -131 41 19
c58 25 133 24 191 -5 l48 -23 258 139 258 138 62 175 c34 96 60 175 58 177 -1
1 -7 -1 -12 -7z m-1331 -144 c56 -29 143 -75 192 -101 50 -26 149 -78 221
-116 154 -81 180 -85 264 -38 30 17 98 53 150 81 52 28 115 62 140 76 97 54
264 142 282 148 10 3 18 1 18 -4 0 -20 -71 -207 -83 -219 -13 -13 -107 -65
-292 -163 -66 -35 -133 -71 -149 -81 -27 -16 -31 -16 -84 2 -67 23 -123 24
-185 3 l-47 -16 -117 60 c-65 32 -147 74 -183 93 -36 18 -67 33 -70 34 -3 0
-31 15 -62 33 l-57 33 -30 92 c-16 51 -32 102 -36 115 -10 34 13 28 128 -32z"/>
<path d="M1915 1435 c-205 -115 -221 -125 -228 -157 -4 -18 -24 -137 -45 -265
l-37 -231 55 51 c30 29 114 107 186 174 l131 123 53 147 c29 82 65 178 81 216
15 37 26 67 25 67 0 -1 -100 -57 -221 -125z m131 1 c-3 -13 -27 -82 -53 -153
-51 -141 -36 -121 -233 -308 -83 -78 -85 -79 -88 -52 -3 26 28 239 48 322 10
46 15 50 140 118 52 28 113 62 135 74 51 28 58 28 51 -1z"/>
<path d="M941 1334 c43 -119 83 -223 91 -230 42 -42 363 -310 365 -305 3 8
-73 500 -78 505 -5 5 -450 246 -453 246 -2 0 32 -97 75 -216z m274 -15 c64
-37 80 -60 89 -124 3 -22 10 -69 16 -105 18 -108 24 -190 13 -190 -10 0 -158
124 -239 200 -28 26 -49 61 -69 111 -47 120 -84 233 -79 241 5 8 139 -59 269
-133z"/>
<path d="M1460 1379 c-44 -9 -80 -50 -80 -91 0 -22 10 -40 37 -66 37 -35 37
-35 59 -186 12 -83 24 -144 27 -136 2 8 13 79 23 158 18 142 18 143 50 161 40
24 52 67 30 109 -22 42 -84 64 -146 51z m97 -44 c35 -24 35 -52 0 -93 -18 -20
-35 -38 -39 -40 -5 -2 -8 -21 -8 -43 0 -51 -16 -51 -23 0 -3 28 -15 50 -41 74
-20 20 -36 44 -36 55 0 50 98 81 147 47z"/>
</g>
</svg>
